<svg xmlns="http://www.w3.org/2000/svg" version="1.1" xmlns:xlink="http://www.w3.org/1999/xlink" xmlns:svgjs="http://svgjs.dev/svgjs" width="100%" height="100%" viewBox="0 0 1000 600"><rect width="1000" height="600" x="0" y="0" fill="#ffffff"/><g><rect width="333.3333333333333" height="333.3333333333333" y="210.088122270481" fill="#000000" transform="matrix(0.6653682337981117,0,0,0.6653682337981116,0,49.319323509491994)" x="187.86589050292966"/><path d="M397.96839832454685 442.63769563330493L389.0025334640566 451.75479194927334Q385.37297853258104 448.12523701779776 376.9256215194445 436.912504818775Q368.4998689999477 425.69977261975237 364.33020172747877 417.05797516385815L364.33020172747877 417.05797516385815Q359.62042211401643 417.72771446669003 354.6081795895978 417.72771446669003L354.6081795895978 417.72771446669003Q337.58383860148626 417.72771446669003 325.4637176695947 410.4902090973786Q313.36520123134284 403.23109923442746 307.3159430122169 390.26840305058624Q301.28828928673073 377.32731136038467 301.28828928673073 359.84927600583876L301.28828928673073 359.84927600583876Q301.28828928673073 332.8868679434489 315.33121015255875 317.3316325228393Q329.39573551202653 301.7547926085901 354.672993070517 301.7547926085901L354.672993070517 301.7547926085901Q379.58297423713196 301.7547926085901 393.69070858387926 317.4396549910381Q407.77683843698674 333.124517373486 407.77683843698674 359.9356939803977L407.77683843698674 359.9356939803977Q407.77683843698674 379.44455173707877 399.80478028392434 393.55228608382606Q391.81111763722225 407.6384159369335 376.9256215194445 413.7092786496992L376.9256215194445 413.7092786496992Q378.15707765690945 415.82651902639327 380.2743180336035 419.2832380087509Q382.3915584102976 422.73995699110856 387.9871222629891 430.53917919505307Q393.56108162204083 438.3167969053578 397.96839832454685 442.63769563330493L397.96839832454685 442.63769563330493ZM325.20446374591785 393.91956247570147Q335.1641353138359 406.2557283439904 354.6081795895978 406.2557283439904Q374.0522238653597 406.2557283439904 383.8822684714393 393.962771462981Q393.71231307751896 381.6482100883318 393.71231307751896 359.9356939803977L393.71231307751896 359.9356939803977Q393.71231307751896 337.7478790123894 383.7958504968804 325.5197356122991Q373.90099240988155 313.2915922122088 354.672993070517 313.2915922122088Q335.4665982247922 313.2915922122088 325.35569520139603 325.5197356122991Q315.2663966716396 337.7478790123894 315.2663966716396 359.9356939803977L315.2663966716396 359.9356939803977Q315.2663966716396 381.5833966074126 325.20446374591785 393.91956247570147Z " fill="#ffffff" transform="matrix(0.6653682337981117,0,0,0.6653682337981116,0,49.319323509491994)"/><path d="M701.212672463951 442.63769563330493L692.2468076034608 451.75479194927334Q688.6172526719853 448.12523701779776 680.1698956588486 436.912504818775Q671.7441431393519 425.69977261975237 667.5744758668828 417.05797516385815L667.5744758668828 417.05797516385815Q662.8646962534206 417.72771446669003 657.8524537290019 417.72771446669003L657.8524537290019 417.72771446669003Q640.8281127408904 417.72771446669003 628.7079918089988 410.4902090973786Q616.609475370747 403.23109923442746 610.560217151621 390.26840305058624Q604.5325634261349 377.32731136038467 604.5325634261349 359.84927600583876L604.5325634261349 359.84927600583876Q604.5325634261349 332.8868679434489 618.5754842919629 317.3316325228393Q632.6400096514307 301.7547926085901 657.9172672099212 301.7547926085901L657.9172672099212 301.7547926085901Q682.8272483765362 301.7547926085901 696.9349827232834 317.4396549910381Q711.0211125763909 333.124517373486 711.0211125763909 359.9356939803977L711.0211125763909 359.9356939803977Q711.0211125763909 379.44455173707877 703.0490544233285 393.55228608382606Q695.0553917766264 407.6384159369335 680.1698956588486 413.7092786496992L680.1698956588486 413.7092786496992Q681.4013517963136 415.82651902639327 683.5185921730077 419.2832380087509Q685.6358325497017 422.73995699110856 691.2313964023932 430.53917919505307Q696.805355761445 438.3167969053578 701.212672463951 442.63769563330493L701.212672463951 442.63769563330493ZM628.448737885322 393.91956247570147Q638.4084094532401 406.2557283439904 657.8524537290019 406.2557283439904Q677.2964980047639 406.2557283439904 687.1265426108436 393.962771462981Q696.9565872169231 381.6482100883318 696.9565872169231 359.9356939803977L696.9565872169231 359.9356939803977Q696.9565872169231 337.7478790123894 687.0401246362845 325.5197356122991Q677.1452665492857 313.2915922122088 657.9172672099212 313.2915922122088Q638.7108723641963 313.2915922122088 628.5999693408002 325.5197356122991Q618.5106708110437 337.7478790123894 618.5106708110437 359.9356939803977L618.5106708110437 359.9356939803977Q618.5106708110437 381.5833966074126 628.448737885322 393.91956247570147ZM816.0621606527847 416.06416845643037L802.3000982042731 416.06416845643037Q784.757249368808 360.00050746131683 780.587582096339 346.26004950644517L780.587582096339 346.26004950644517Q778.2326922896078 354.6209885450228 775.1864586864052 364.3430106829037Q772.1618295768423 374.0650328207846 769.8717532510302 381.04328426641916Q767.603281418858 388.0431402056935 763.9521219937427 399.1262454428778Q760.3009625686274 410.209350680062 758.3997671283307 416.06416845643037L758.3997671283307 416.06416845643037L744.7457271480179 416.06416845643037L720.9591796506692 332.73563648797074L734.0947117836283 332.73563648797074L751.9616280236895 400.94102290861554Q755.677600929724 388.7992974830843 773.8253755871018 332.73563648797074L773.8253755871018 332.73563648797074L788.192363857526 332.73563648797074Q806.2537205403447 390.0091491269094 809.4511855990255 400.7249779722182L809.4511855990255 400.7249779722182L827.0804524090497 332.73563648797074L840.0647530865307 332.73563648797074L816.0621606527847 416.06416845643037ZM854.5613683187931 332.73563648797074L867.3296240598768 332.73563648797074L867.3296240598768 416.06416845643037L854.5613683187931 416.06416845643037L854.5613683187931 332.73563648797074ZM854.5613683187931 302.4461364050616L867.3296240598768 302.4461364050616L867.3296240598768 317.4828639783175L854.5613683187931 317.4828639783175L854.5613683187931 302.4461364050616ZM944.8033382519681 406.0396834075931L944.8033382519681 416.06416845643037L886.6224368801605 416.06416845643037L886.6224368801605 406.4933777740275L929.2264983377189 342.760121536808L887.7674750430666 342.760121536808L887.7674750430666 332.73563648797074L943.420650659025 332.73563648797074L943.420650659025 342.760121536808L900.9030071760257 406.0396834075931L944.8033382519681 406.0396834075931ZM1050.6005436057526 417.72771446669003L1050.6005436057526 417.72771446669003Q1037.7674743837497 417.72771446669003 1027.548548892155 413.4500247260223Q1017.32962340056 409.15073049171497 1010.6970438531612 401.4379262623295Q1004.0428598121227 393.7251220329439 1000.4997228552061 383.182129136753Q996.9781903919292 372.6175317469224 996.9781903919292 360.00050746131683L996.9781903919292 360.00050746131683Q996.9781903919292 342.9977709668451 1003.4379339902101 329.9270523148051Q1009.897677588491 316.877938156405 1022.644328835935 309.35957436977696Q1035.4125845770186 301.8196060895093 1052.8690154379246 301.8196060895093L1052.8690154379246 301.8196060895093Q1072.2482462327675 301.8196060895093 1086.8960929205082 310.63423949452135L1086.8960929205082 310.63423949452135L1081.8838503960897 321.50129979530834Q1067.7761160493424 313.3780101867678 1053.0418513870427 313.3780101867678L1053.0418513870427 313.3780101867678Q1042.7797169081682 313.3780101867678 1034.6780317932676 316.8995426500446Q1026.5979511720066 320.4426796069613 1021.4776861793893 326.70798276248456Q1016.3358166931322 332.97328591800783 1013.656859481805 341.4422474247841Q1010.956297776838 349.9112089315604 1010.956297776838 360.00050746131683L1010.956297776838 360.00050746131683Q1010.956297776838 381.43216515193444 1021.6289176348673 393.8547489947823Q1032.3015374928968 406.2557283439904 1053.106664867962 406.2557283439904L1053.106664867962 406.2557283439904Q1064.9459273825369 406.2557283439904 1077.174070782627 401.4811352496089L1077.174070782627 401.4811352496089L1077.174070782627 369.4200666882415L1050.6869615803116 369.4200666882415L1051.140655946746 357.96968505918176L1089.4886321572762 357.96968505918176L1089.4886321572762 409.30196194719315Q1079.9178414748735 413.86051010517735 1070.9951856016628 415.8049145327535Q1062.072529728452 417.72771446669003 1050.6005436057526 417.72771446669003ZM1107.3339439036977 388.2591851420908L1107.3339439036977 388.2591851420908L1107.3339439036977 332.73563648797074L1120.1021996447816 332.73563648797074L1120.1021996447816 388.410416597569Q1120.1021996447816 393.87635348842207 1121.6577231868423 397.6787443690155Q1123.2132467289034 401.4811352496089 1126.129853370268 403.5767711326632Q1129.0680645052716 405.6508025220778 1132.7408284240269 406.57979574858643Q1136.4351968364217 407.4871844814554 1141.2097899308033 407.4871844814554L1141.2097899308033 407.4871844814554Q1151.0830435241623 407.4871844814554 1156.592189402295 403.14468125986855Q1162.101335280427 398.82378253192144 1162.101335280427 388.410416597569L1162.101335280427 388.410416597569L1162.101335280427 332.73563648797074L1174.869591021511 332.73563648797074L1174.869591021511 388.2591851420908Q1174.869591021511 394.6541152594525 1173.0332090621332 399.7311712647903Q1171.2184315963955 404.82983176376797 1168.1289890059134 408.2001327715667Q1165.0611509090709 411.5920382730051 1160.740252181124 413.7956966242581Q1156.3977489595372 415.97775048187145 1151.579946877876 416.97155718929923Q1146.7621447962151 417.965363896727 1141.2097899308033 417.965363896727L1141.2097899308033 417.965363896727Q1135.74385303995 417.965363896727 1130.8828419710094 416.97155718929923Q1126.0218309020693 415.97775048187145 1121.6577231868423 413.7524876369787Q1117.2936154716158 411.50562029844616 1114.1393594002147 408.13531929064743Q1110.9851033288132 404.74341378920894 1109.1703258630755 399.66635778387115Q1107.3339439036977 394.5676972848936 1107.3339439036977 388.2591851420908ZM1231.1492969530218 331.97947921057994L1231.1492969530218 331.97947921057994Q1234.5628069481 331.97947921057994 1237.3713911212653 332.4331735770145L1237.3713911212653 332.4331735770145L1236.917696754831 344.1428091297511Q1233.4177687851939 343.53788330783846 1230.8468340420654 343.53788330783846L1230.8468340420654 343.53788330783846Q1220.1958186776756 343.53788330783846 1213.563239130277 350.92662013262793Q1206.9090550892383 358.3369614510573 1206.9090550892383 369.2688352327634L1206.9090550892383 369.2688352327634L1206.9090550892383 416.06416845643037L1194.2272173227138 416.06416845643037Q1194.162403841795 339.34661154172977 1194.162403841795 332.73563648797074L1194.162403841795 332.73563648797074L1204.7053967379857 332.73563648797074L1205.9152483818107 347.7075505803074Q1210.2577516033975 340.6428811601139 1216.9335401380758 336.3219824321668Q1223.6309331663938 331.97947921057994 1231.1492969530218 331.97947921057994ZM1247.5471076255808 388.2591851420908L1247.5471076255808 388.2591851420908L1247.5471076255808 332.73563648797074L1260.3153633666643 332.73563648797074L1260.3153633666643 388.410416597569Q1260.3153633666643 393.87635348842207 1261.8708869087254 397.6787443690155Q1263.4264104507865 401.4811352496089 1266.3430170921506 403.5767711326632Q1269.2812282271548 405.6508025220778 1272.9539921459095 406.57979574858643Q1276.6483605583044 407.4871844814554 1281.422953652686 407.4871844814554L1281.422953652686 407.4871844814554Q1291.296207246045 407.4871844814554 1296.8053531241776 403.14468125986855Q1302.3144990023102 398.82378253192144 1302.3144990023102 388.410416597569L1302.3144990023102 388.410416597569L1302.3144990023102 332.73563648797074L1315.061150249754 332.73563648797074L1315.061150249754 388.2591851420908Q1315.061150249754 394.6541152594525 1313.2463727840163 399.7311712647903Q1311.4315953182786 404.82983176376797 1308.3421527277965 408.2001327715667Q1305.274314630954 411.5920382730051 1300.9534159030068 413.7956966242581Q1296.61091268142 415.97775048187145 1291.793110599759 416.97155718929923Q1286.9753085180978 417.965363896727 1281.422953652686 417.965363896727L1281.422953652686 417.965363896727Q1275.957016761833 417.965363896727 1271.0960056928925 416.97155718929923Q1266.234994623952 415.97775048187145 1261.8708869087254 413.7524876369787Q1257.506779193499 411.50562029844616 1254.3525231220974 408.13531929064743Q1251.198267050696 404.74341378920894 1249.3618850913185 399.66635778387115Q1247.5471076255808 394.5676972848936 1247.5471076255808 388.2591851420908Z " fill="#000000" transform="matrix(0.6653682337981117,0,0,0.6653682337981116,0,49.319323509491994)"/></g></svg>